<?xml version="1.0" encoding="utf-8"?>
<!-- Generator: Adobe Illustrator 16.0.0, SVG Export Plug-In . SVG Version: 6.00 Build 0)  -->
<!DOCTYPE svg PUBLIC "-//W3C//DTD SVG 1.1//EN" "http://www.w3.org/Graphics/SVG/1.1/DTD/svg11.dtd">
<svg version="1.1" id="Layer_1" xmlns="http://www.w3.org/2000/svg" xmlns:xlink="http://www.w3.org/1999/xlink" x="0px" y="0px"
	 width="512px" height="512px" viewBox="0 0 512 512" enable-background="new 0 0 512 512" xml:space="preserve">
<path fill="#FFFFFF" d="M254,27C128.631,27,27,128.631,27,254c0,125.369,101.631,227,227,227c125.369,0,227-101.631,227-227
	C481,128.631,379.369,27,254,27z M316.566,165.876h-32.981c-5.411,0-13.02,2.703-13.02,14.214v30.693h45.864l-5.362,52.104h-40.506
	v148.392h-61.368V262.887h-29.188v-52.152h29.188v-33.748c0-24.133,11.463-61.923,61.915-61.923l45.458,0.19V165.876z"/>
</svg>
