<?xml version="1.0" encoding="utf-8"?>
<!-- Generator: Adobe Illustrator 16.0.0, SVG Export Plug-In . SVG Version: 6.00 Build 0)  -->
<!DOCTYPE svg PUBLIC "-//W3C//DTD SVG 1.1//EN" "http://www.w3.org/Graphics/SVG/1.1/DTD/svg11.dtd">
<svg version="1.1" id="Layer_1" xmlns="http://www.w3.org/2000/svg" xmlns:xlink="http://www.w3.org/1999/xlink" x="0px" y="0px"
	 width="512px" height="512px" viewBox="0 0 512 512" enable-background="new 0 0 512 512" xml:space="preserve">
<g>
	<path fill="#FFFFFF" d="M323.358,150.254H188.641c-21.502,0-38.997,17.494-38.997,38.997v134.717
		c0,21.503,17.494,39.002,38.997,39.002h134.717c21.503,0,39.003-17.494,39.003-39.002V189.251
		C362.361,167.748,344.866,150.254,323.358,150.254z M256,326.637c-38.609,0-70.022-31.414-70.022-70.027
		c0-38.609,31.413-70.022,70.022-70.022c38.613,0,70.027,31.414,70.027,70.022C326.027,295.218,294.609,326.637,256,326.637z
		 M328.278,201.065c-9.141,0-16.572-7.433-16.572-16.568s7.432-16.567,16.572-16.567c9.135,0,16.568,7.432,16.568,16.567
		S337.413,201.065,328.278,201.065z"/>
	<path fill="#FFFFFF" d="M256,216.177c-22.289,0-40.437,18.139-40.437,40.427c0,22.299,18.148,40.442,40.437,40.442
		c22.299,0,40.432-18.144,40.432-40.442C296.432,234.321,278.293,216.177,256,216.177z"/>
	<path fill="#FFFFFF" d="M256,30C131.188,30,30,131.189,30,256c0,124.812,101.188,226,226,226s226-101.188,226-226
		C482,131.189,380.812,30,256,30z M391.945,323.968c0,37.823-30.764,68.587-68.587,68.587H188.641
		c-37.818,0-68.587-30.764-68.587-68.587V189.251c0-37.818,30.769-68.587,68.587-68.587h134.717
		c37.823,0,68.587,30.769,68.587,68.587V323.968z"/>
</g>
</svg>
