<?xml version="1.0" encoding="utf-8"?>
<!-- Generator: Adobe Illustrator 16.0.0, SVG Export Plug-In . SVG Version: 6.00 Build 0)  -->
<!DOCTYPE svg PUBLIC "-//W3C//DTD SVG 1.1//EN" "http://www.w3.org/Graphics/SVG/1.1/DTD/svg11.dtd">
<svg version="1.1" id="Layer_1" xmlns="http://www.w3.org/2000/svg" xmlns:xlink="http://www.w3.org/1999/xlink" x="0px" y="0px"
	 width="512px" height="512px" viewBox="0 0 512 512" enable-background="new 0 0 512 512" xml:space="preserve">
<path fill="#FFFFFF" d="M256,29.502C130.909,29.502,29.502,130.909,29.502,256S130.909,482.498,256,482.498
	c125.092,0,226.498-101.406,226.498-226.498S381.092,29.502,256,29.502z M367.719,220.3c0.105,2.317,0.158,4.656,0.158,7.001
	c0,71.55-54.459,154.044-154.041,154.044c-30.572,0-59.037-8.959-82.983-24.326c4.228,0.504,8.548,0.76,12.907,0.76
	c25.373,0,48.714-8.654,67.246-23.176c-23.697-0.441-43.687-16.094-50.574-37.598c3.303,0.629,6.69,0.965,10.187,0.965
	c4.93,0,9.723-0.658,14.261-1.902c-24.763-4.969-43.432-26.85-43.432-53.081c0-0.227,0-0.457,0.004-0.687
	c7.296,4.066,15.649,6.5,24.52,6.779c-14.519-9.706-24.083-26.284-24.083-45.063c0-9.92,2.673-19.227,7.331-27.221
	c26.705,32.765,66.601,54.317,111.595,56.574c-0.929-3.965-1.41-8.096-1.41-12.339c0-29.895,24.246-54.14,54.14-54.14
	c15.581,0,29.652,6.573,39.529,17.091c12.325-2.426,23.917-6.929,34.378-13.135c-4.049,12.65-12.629,23.249-23.809,29.947
	c10.949-1.3,21.39-4.211,31.098-8.515C387.482,203.137,378.305,212.67,367.719,220.3z"/>
</svg>
