<?xml version="1.0" encoding="utf-8"?>
<!-- Generator: Adobe Illustrator 16.0.0, SVG Export Plug-In . SVG Version: 6.00 Build 0)  -->
<!DOCTYPE svg PUBLIC "-//W3C//DTD SVG 1.1//EN" "http://www.w3.org/Graphics/SVG/1.1/DTD/svg11.dtd">
<svg version="1.1" id="Layer_1" xmlns="http://www.w3.org/2000/svg" xmlns:xlink="http://www.w3.org/1999/xlink" x="0px" y="0px"
	 width="512px" height="512px" viewBox="0 0 512 512" enable-background="new 0 0 512 512" xml:space="preserve">
<path fill="#FFFFFF" d="M224.113,303.961L307.387,256l-83.273-47.961V303.961z"/>
<path fill="#FFFFFF" d="M256,26.5C129.27,26.5,26.5,129.27,26.5,256c0,126.729,102.77,229.5,229.5,229.5
	c126.73,0,229.5-102.771,229.5-229.5C485.5,129.27,382.73,26.5,256,26.5z M399.402,256.234c0,0,0,46.544-5.904,68.987
	c-3.309,12.285-12.995,21.971-25.28,25.277C345.774,356.406,256,356.406,256,356.406s-89.54,0-112.218-6.143
	c-12.285-3.306-21.971-12.995-25.28-25.28c-5.908-22.205-5.908-68.983-5.908-68.983s0-46.54,5.908-68.984
	c3.306-12.285,13.23-22.209,25.28-25.515C166.226,155.594,256,155.594,256,155.594s89.774,0,112.218,6.143
	c12.285,3.306,21.972,12.995,25.28,25.28C399.641,209.46,399.402,256.234,399.402,256.234z"/>
</svg>
